<svg width="43" height="43" viewBox="0 0 43 43" fill="none" xmlns="http://www.w3.org/2000/svg">
<path d="M19.7084 11.6459H23.2917M19.7084 32.25H23.2917M10.75 23.2917L10.75 19.7084M32.25 23.2917V19.7084M8.95835 14.3334H12.5417C13.5312 14.3334 14.3334 13.5312 14.3334 12.5417V8.95835C14.3334 7.96884 13.5312 7.16669 12.5417 7.16669H8.95835C7.96884 7.16669 7.16669 7.96884 7.16669 8.95835V12.5417C7.16669 13.5312 7.96884 14.3334 8.95835 14.3334ZM8.95835 35.8334H12.5417C13.5312 35.8334 14.3334 35.0312 14.3334 34.0417V30.4584C14.3334 29.4688 13.5312 28.6667 12.5417 28.6667H8.95835C7.96884 28.6667 7.16669 29.4688 7.16669 30.4584V34.0417C7.16669 35.0312 7.96884 35.8334 8.95835 35.8334ZM30.4584 35.8334H34.0417C35.0312 35.8334 35.8334 35.0312 35.8334 34.0417V30.4584C35.8334 29.4688 35.0312 28.6667 34.0417 28.6667H30.4584C29.4688 28.6667 28.6667 29.4688 28.6667 30.4584V34.0417C28.6667 35.0312 29.4688 35.8334 30.4584 35.8334ZM30.4584 14.3334H34.0417C35.0312 14.3334 35.8334 13.5312 35.8334 12.5417V8.95835C35.8334 7.96884 35.0312 7.16669 34.0417 7.16669H30.4584C29.4688 7.16669 28.6667 7.96884 28.6667 8.95835V12.5417C28.6667 13.5312 29.4688 14.3334 30.4584 14.3334Z" stroke="#2C3E50" stroke-width="2" stroke-linecap="round" stroke-linejoin="round"/>
</svg>
