<?xml version="1.0" encoding="UTF-8" standalone="no"?>
<!-- Uploaded to: SVG Repo, www.svgrepo.com, Generator: SVG Repo Mixer Tools -->

<svg
   height="100"
   width="100"
   version="1.1"
   id="_x32_"
   viewBox="0 0 64 64"
   xml:space="preserve"
   sodipodi:docname="alpaca.svg"
   inkscape:version="1.4 (86a8ad7, 2024-10-11)"
   xmlns:inkscape="http://www.inkscape.org/namespaces/inkscape"
   xmlns:sodipodi="http://sodipodi.sourceforge.net/DTD/sodipodi-0.dtd"
   xmlns="http://www.w3.org/2000/svg"
   xmlns:svg="http://www.w3.org/2000/svg"><defs
   id="defs1" /><sodipodi:namedview
   id="namedview1"
   pagecolor="#ffffff"
   bordercolor="#000000"
   borderopacity="0.25"
   inkscape:showpageshadow="2"
   inkscape:pageopacity="0.0"
   inkscape:pagecheckerboard="0"
   inkscape:deskcolor="#d1d1d1"
   inkscape:zoom="8.0115198"
   inkscape:cx="52.67415"
   inkscape:cy="54.983325"
   inkscape:window-width="2560"
   inkscape:window-height="1351"
   inkscape:window-x="-9"
   inkscape:window-y="-9"
   inkscape:window-maximized="1"
   inkscape:current-layer="_x32_" />
<style
   type="text/css"
   id="style1">
	.st0{fill:#000000;}
</style>
<g
   id="g1"
   transform="matrix(0.12499995,0,0,0.12499995,1.6659028e-5,2.56e-5)">
	<path
   class="st0"
   d="m 471.66,296.714 c -8.816,-52.94 -45.881,-84.711 -100.587,-84.711 -63.359,-11.519 -148.225,14.12 -179.994,-10.581 -31.761,-24.71 -21.172,-74.121 -17.641,-109.412 3.53,-35.291 -17.65,-47.646 -17.65,-47.646 0,0 0,-40.586 -17.65,-44.116 -17.641,-3.53 -21.17,31.761 -21.17,31.761 0,0 -28.241,7.06 -38.822,21.18 -10.59,14.112 -38.83,17.641 -38.83,38.821 0,21.18 45.89,12.174 45.89,47.646 0,47.646 -7.06,183.524 63.523,229.405 L 180.498,512 h 45.872 l 1.765,-127.053 H 358.727 L 364.022,512 h 52.932 c 0,0 21.18,-123.524 28.24,-162.354 1.275,-6.99 2.188,-15.497 2.402,-24.787 9.221,9.996 29.91,6.923 24.064,-28.145 z"
   id="path1" />
</g>
</svg>
