<?xml version="1.0" encoding="UTF-8" standalone="no"?>
<!-- Uploaded to: SVG Repo, www.svgrepo.com, Generator: SVG Repo Mixer Tools -->

<svg
   height="100"
   width="100"
   version="1.1"
   id="_x32_"
   viewBox="0 0 64 64"
   xml:space="preserve"
   sodipodi:docname="bird.svg"
   inkscape:version="1.4 (86a8ad7, 2024-10-11)"
   xmlns:inkscape="http://www.inkscape.org/namespaces/inkscape"
   xmlns:sodipodi="http://sodipodi.sourceforge.net/DTD/sodipodi-0.dtd"
   xmlns="http://www.w3.org/2000/svg"
   xmlns:svg="http://www.w3.org/2000/svg"><defs
   id="defs1" /><sodipodi:namedview
   id="namedview1"
   pagecolor="#ffffff"
   bordercolor="#000000"
   borderopacity="0.25"
   inkscape:showpageshadow="2"
   inkscape:pageopacity="0.0"
   inkscape:pagecheckerboard="0"
   inkscape:deskcolor="#d1d1d1"
   inkscape:zoom="8"
   inkscape:cx="64.125"
   inkscape:cy="42.1875"
   inkscape:window-width="2560"
   inkscape:window-height="1351"
   inkscape:window-x="-9"
   inkscape:window-y="-9"
   inkscape:window-maximized="1"
   inkscape:current-layer="_x32_" />
<style
   type="text/css"
   id="style1">
	.st0{fill:#000000;}
</style>
<g
   id="g1"
   transform="matrix(0.1249999,0,0,0.1249999,1.9311324e-5,4.4851499e-5)">
	<path
   class="st0"
   d="M 508.799,191.696 C 450.224,202.159 318.69,153.52 318.69,153.52 c -17.084,-3.365 -36.147,0.166 -51.31,15.799 0,0 -29.981,34.949 -34.631,40.372 l -4.535,-3.011 c 33.23,-31.223 64.338,-88.123 67.456,-102.189 0.996,-4.506 -0.91,-5.516 -4.39,-2.889 -10.224,7.683 -39.844,18.334 -57.781,27.959 43.86,-32.046 62.084,-76.583 55.081,-96.008 -0.694,-1.906 -3.235,-2.159 -4.044,-0.938 -25.013,37.042 -120.01,82.352 -120.01,82.352 -10.744,7.43 -18.817,19.568 -18.326,35.938 0,0 1.95,16.926 2.874,39.18 -29.663,-32.768 -64.107,-36.522 -82.938,-35.266 -41.361,2.758 -34.01,19.2 -55.456,38.219 -19.482,17.294 -6.354,39.484 -6.354,39.484 0,0 40.999,-43.816 61.81,16.932 16.896,49.325 20.131,66.446 33.143,79.076 7.408,7.199 13.734,13.192 19.208,18.232 9.734,16.188 34.226,57.737 34.226,57.737 l 7.366,-1.646 1.458,10.383 -20.29,9.329 -27.194,-28.233 -27.338,1.56 -10.412,16.168 16.882,-4.397 16.146,0.91 11.134,12.434 11.785,12.506 6.758,14.499 -7.769,7.041 18.023,-2.882 -0.029,-18.983 26.183,-12.565 -2.051,-20.752 16.348,-3.668 c 0,0 -0.708,-3.827 -1.603,-8.412 15.279,4.723 35.916,9.95 67.197,18.861 l 79.154,73.479 20.652,-22.543 -48.148,-37.173 53.882,32.09 83.385,-75.327 -137.108,-9.012 c -16.42,-8.232 -31.396,-18.644 -45.015,-30.269 40.913,-4.722 91.704,-35.729 106.564,-40.199 7.683,-2.31 2.831,-8.094 2.831,-8.094 l -40.206,-17.41 c 60.741,13.67 101.755,-5.466 118.045,-15.517 5.199,-3.221 4.405,-5.979 -1.343,-6.874 -16.839,-2.614 -53.189,-8.795 -79.024,-16.983 71.327,12.145 130.71,-11.712 142.683,-36.393 1.183,-2.413 -0.939,-5.07 -2.86,-4.731 z"
   id="path1" />
</g>
</svg>
