<?xml version="1.0" encoding="UTF-8" standalone="no"?>
<!-- Uploaded to: SVG Repo, www.svgrepo.com, Generator: SVG Repo Mixer Tools -->

<svg
   version="1.1"
   id="_x32_"
   width="100"
   height="100"
   viewBox="0 0 64 64"
   xml:space="preserve"
   sodipodi:docname="dog.svg"
   inkscape:version="1.4 (86a8ad7, 2024-10-11)"
   xmlns:inkscape="http://www.inkscape.org/namespaces/inkscape"
   xmlns:sodipodi="http://sodipodi.sourceforge.net/DTD/sodipodi-0.dtd"
   xmlns="http://www.w3.org/2000/svg"
   xmlns:svg="http://www.w3.org/2000/svg"><defs
   id="defs2" /><sodipodi:namedview
   id="namedview2"
   pagecolor="#ffffff"
   bordercolor="#000000"
   borderopacity="0.25"
   inkscape:showpageshadow="2"
   inkscape:pageopacity="0.0"
   inkscape:pagecheckerboard="0"
   inkscape:deskcolor="#d1d1d1"
   inkscape:zoom="8.0115198"
   inkscape:cx="58.790343"
   inkscape:cy="49.491234"
   inkscape:window-width="2560"
   inkscape:window-height="1351"
   inkscape:window-x="-9"
   inkscape:window-y="-9"
   inkscape:window-maximized="1"
   inkscape:current-layer="_x32_" />
<style
   type="text/css"
   id="style1">
<![CDATA[
	.st0{fill:#000000;}
]]>
</style>
<g
   id="g2"
   transform="matrix(0.12500077,0,0,0.12500077,-1.2510435e-4,-1.4776606e-4)">
	<path
   class="st0"
   d="m 186.815,116.466 c 13.063,3.922 35.922,-22.203 35.922,-22.203 0,0 -20.469,-18.484 -32.656,-30.688 -7.188,-7.188 -32.375,-12.516 -41.188,-1.734 -3.516,4.297 -19.578,18.063 -19.578,18.063 0,0 -26.094,0 -41.766,0 -15.672,0 -24.828,6.531 -27.438,14.359 -2.609,7.859 -15.672,43.109 -15.672,43.109 l -44.438,6.531 c 0,0 1.609,44.297 1.609,59.969 0,15.672 7.219,28.406 30.047,31.344 19.422,2.5 41.828,6.859 41.828,6.859 L 84.86,262.872 218.079,160.013 c 0.002,0 -10.373,-22.641 -31.264,-43.547 z"
   id="path1" />
	<path
   class="st0"
   d="m 498.736,125.481 c -9.578,-2.594 -19.422,3.063 -22.031,12.625 -0.141,0.547 -9.5,33.531 -32.422,62.953 -14.078,-11.094 -31.187,-17.688 -49.515,-17.688 -47.016,0 -162.438,0 -162.438,0 L 96.659,286.794 145.472,456.278 h 45.172 l 8.203,-75.75 c 23.531,0 177.656,0 177.656,0 l 40.016,75.75 h 59.234 c 0,0 5.234,-125.391 5.234,-177.641 0,-18.156 -4.828,-35.141 -12.969,-49.656 30.781,-36.5 42.609,-78.734 43.344,-81.484 2.609,-9.578 -3.048,-19.437 -12.626,-22.016 z"
   id="path2" />
</g>
</svg>
