<?xml version="1.0" encoding="UTF-8" standalone="no"?>
<!-- Uploaded to: SVG Repo, www.svgrepo.com, Generator: SVG Repo Mixer Tools -->

<svg
   version="1.1"
   id="_x32_"
   width="100"
   height="100"
   viewBox="0 0 64 64"
   xml:space="preserve"
   sodipodi:docname="pig.svg"
   inkscape:version="1.4 (86a8ad7, 2024-10-11)"
   xmlns:inkscape="http://www.inkscape.org/namespaces/inkscape"
   xmlns:sodipodi="http://sodipodi.sourceforge.net/DTD/sodipodi-0.dtd"
   xmlns="http://www.w3.org/2000/svg"
   xmlns:svg="http://www.w3.org/2000/svg"><defs
   id="defs1" /><sodipodi:namedview
   id="namedview1"
   pagecolor="#ffffff"
   bordercolor="#000000"
   borderopacity="0.25"
   inkscape:showpageshadow="2"
   inkscape:pageopacity="0.0"
   inkscape:pagecheckerboard="0"
   inkscape:deskcolor="#d1d1d1"
   inkscape:zoom="4.0057599"
   inkscape:cx="52.174869"
   inkscape:cy="79.760147"
   inkscape:window-width="2560"
   inkscape:window-height="1351"
   inkscape:window-x="-9"
   inkscape:window-y="-9"
   inkscape:window-maximized="1"
   inkscape:current-layer="_x32_" />
<style
   type="text/css"
   id="style1">
<![CDATA[
	.st0{fill:#000000;}
]]>
</style>
<g
   id="g1"
   transform="matrix(0.12499947,0,0,0.12499947,1.4644506e-4,-2.8467486e-5)">
	<path
   class="st0"
   d="m 507.317,91.987 c -3.734,-1.406 -7.891,0.5 -9.297,4.219 -2.047,5.406 -4.328,9.813 -6.719,13.344 -2.063,3.109 -4.219,5.516 -6.375,7.406 0,-0.188 0.016,-0.406 0.016,-0.625 0,-5.391 -0.719,-10.172 -2.109,-14.391 -2.047,-6.313 -5.672,-11.313 -10.203,-14.563 -4.516,-3.297 -9.781,-4.781 -14.813,-4.781 -5.547,0 -10.891,1.75 -15.328,4.969 -2.188,1.656 -4.172,3.672 -5.719,6.063 -1.547,2.391 -2.688,5.156 -3.234,8.141 -0.25,1.375 -0.359,2.766 -0.359,4.125 0,4.406 1.203,8.594 3.188,12.344 2.969,5.625 7.625,10.375 13.313,13.828 3.328,2.016 7.016,3.578 10.953,4.547 -0.234,0.188 -0.438,0.391 -0.688,0.609 -5.969,4.922 -14.203,9.047 -22.922,11.891 C 384.333,76.3 267.599,51.504 169.13,106.347 157.927,112.581 147.896,119.066 138.755,125.55 114.052,95.831 51.864,90.847 59.88,113.972 c 7.25,20.953 17.922,43.938 22.906,57.547 -18.688,15.75 -35.984,27.953 -58.688,32.172 -20.734,3.875 -26.891,9.375 -23,29.641 l 8.578,67.828 c 0,0 24.172,13.969 32.734,18.703 18.922,10.453 56.125,33.25 111.109,50.188 l 20.844,65.375 h 52.156 v -49.265 c 20.828,2.891 43.234,4.594 67.266,4.594 12.484,0 24.219,-0.844 35.25,-2.422 v 47.093 h 52.141 l 24.234,-75.968 c 57.672,-40.75 71.907,-113.672 51.532,-172.266 -3.156,-9.016 -7.125,-17.547 -11.813,-25.625 7.781,-2.859 15.234,-6.594 21.641,-11.375 4.797,-3.578 9.016,-7.75 12.219,-12.641 0.313,-0.469 0.625,-0.969 0.906,-1.453 0.516,-0.172 1.031,-0.297 1.547,-0.484 6,-2.125 11.828,-6 16.953,-11.688 5.109,-5.688 9.563,-13.172 13.141,-22.641 1.406,-3.72 -0.484,-7.892 -4.219,-9.298 z m -36.937,27.906 c -0.094,1.156 -0.266,2.25 -0.563,3.359 -0.141,0 -0.281,0 -0.406,0 -2.906,0 -5.766,-0.578 -8.438,-1.641 -3.984,-1.563 -7.5,-4.188 -9.875,-7.125 -1.172,-1.469 -2.078,-3 -2.641,-4.453 -0.578,-1.469 -0.859,-2.859 -0.859,-4.141 0,-0.531 0.063,-1.047 0.141,-1.531 0.203,-1.078 0.578,-2 1.141,-2.875 0.828,-1.266 2.078,-2.375 3.656,-3.203 1.578,-0.797 3.438,-1.25 5.281,-1.25 1.5,0 2.969,0.281 4.344,0.875 1.031,0.453 2,1.063 2.938,1.906 1.375,1.266 2.672,3.047 3.703,5.719 1,2.641 1.703,6.188 1.703,10.797 0,1.126 -0.047,2.313 -0.125,3.563 z"
   id="path1" />
</g>
</svg>
