<?xml version="1.0" encoding="UTF-8" standalone="no"?>
<!-- Uploaded to: SVG Repo, www.svgrepo.com, Generator: SVG Repo Mixer Tools -->

<svg
   version="1.1"
   id="_x32_"
   width="100"
   height="100"
   viewBox="0 0 64 64"
   xml:space="preserve"
   sodipodi:docname="shark.svg"
   inkscape:version="1.4 (86a8ad7, 2024-10-11)"
   xmlns:inkscape="http://www.inkscape.org/namespaces/inkscape"
   xmlns:sodipodi="http://sodipodi.sourceforge.net/DTD/sodipodi-0.dtd"
   xmlns="http://www.w3.org/2000/svg"
   xmlns:svg="http://www.w3.org/2000/svg"><defs
   id="defs1" /><sodipodi:namedview
   id="namedview1"
   pagecolor="#ffffff"
   bordercolor="#000000"
   borderopacity="0.25"
   inkscape:showpageshadow="2"
   inkscape:pageopacity="0.0"
   inkscape:pagecheckerboard="0"
   inkscape:deskcolor="#d1d1d1"
   inkscape:zoom="8.0115198"
   inkscape:cx="42.81335"
   inkscape:cy="60.225776"
   inkscape:window-width="2560"
   inkscape:window-height="1351"
   inkscape:window-x="-9"
   inkscape:window-y="-9"
   inkscape:window-maximized="1"
   inkscape:current-layer="_x32_" />
<style
   type="text/css"
   id="style1">
<![CDATA[
	.st0{fill:#000000;}
]]>
</style>
<g
   id="g1"
   transform="matrix(0.12500116,0,0,0.12500116,-2.6876564e-4,-5.0448716e-4)">
	<path
   class="st0"
   d="m 510.723,189.37 c -1.641,-2.297 -4.531,-3.344 -7.25,-2.656 0,0 -2.375,-1.391 -12.797,3.266 -38.078,16.984 -79.906,56.891 -95.062,60.688 -15.281,3.813 -92.438,-38.594 -123.672,-45.734 -1.313,-5.688 -2.516,-12.266 -3.469,-19.813 -3.875,-31.078 17.891,-64.313 -11.953,-58.188 -46.531,9.516 -72.922,44.641 -87.578,73.813 -51.078,6.297 -102.734,25.5 -137.938,34.594 -40.547,10.5 -37.328,36.219 -13.219,44.25 l 99.688,32.172 -80.438,12.703 c -2.359,0.375 -4.359,1.953 -5.266,4.188 -0.906,2.219 -0.563,4.75 0.859,6.672 l 2.828,3.766 c 74.781,32.641 148.922,26.547 203.484,19.219 17.594,10.031 40.656,21.734 60.547,27.078 21.734,3.969 5.75,-21.203 -7.172,-38.25 62.813,-17.781 94.953,-34.953 107.047,-27.984 36.156,20.797 64.093,32.063 81.875,37.984 14.391,4.797 5.313,1.453 5.313,1.453 2.719,0.75 5.609,-0.234 7.281,-2.484 1.688,-2.266 1.828,-5.313 0.344,-7.688 l -3.297,-5.328 -29.344,-47.406 c 0,0 20.219,-50.016 43.047,-88.969 5.234,-8.922 6.297,-9.625 6.297,-9.625 1.548,-2.362 1.485,-5.424 -0.155,-7.721 z M 79.676,271.558 c -6.656,0 -12.047,-5.391 -12.047,-12.063 0,-6.656 5.391,-12.047 12.047,-12.047 6.672,0 12.063,5.391 12.063,12.047 0,6.672 -5.391,12.063 -12.063,12.063 z"
   id="path1" />
</g>
</svg>
