<?xml version="1.0" encoding="UTF-8" standalone="no"?>
<!-- Uploaded to: SVG Repo, www.svgrepo.com, Generator: SVG Repo Mixer Tools -->

<svg
   height="100"
   width="100"
   version="1.1"
   id="_x32_"
   viewBox="0 0 64 64"
   xml:space="preserve"
   sodipodi:docname="swallow.svg"
   inkscape:version="1.4 (86a8ad7, 2024-10-11)"
   xmlns:inkscape="http://www.inkscape.org/namespaces/inkscape"
   xmlns:sodipodi="http://sodipodi.sourceforge.net/DTD/sodipodi-0.dtd"
   xmlns="http://www.w3.org/2000/svg"
   xmlns:svg="http://www.w3.org/2000/svg"><defs
   id="defs1" /><sodipodi:namedview
   id="namedview1"
   pagecolor="#ffffff"
   bordercolor="#000000"
   borderopacity="0.25"
   inkscape:showpageshadow="2"
   inkscape:pageopacity="0.0"
   inkscape:pagecheckerboard="0"
   inkscape:deskcolor="#d1d1d1"
   inkscape:zoom="5.665"
   inkscape:cx="23.21271"
   inkscape:cy="84.995587"
   inkscape:window-width="2560"
   inkscape:window-height="1351"
   inkscape:window-x="-9"
   inkscape:window-y="-9"
   inkscape:window-maximized="1"
   inkscape:current-layer="_x32_" />
<style
   type="text/css"
   id="style1">
	.st0{fill:#000000;}
</style>
<g
   id="g1"
   style="fill:#ffffff;fill-opacity:1;stroke:none"
   transform="matrix(0.12500005,0,0,0.12500005,-3.7093523e-5,0.12942482)">
	<path
   class="st0"
   d="m 420.765,393.964 c -24.724,0.878 -106.592,1.956 -97.278,-18.532 9.232,-20.315 -6.641,-24.062 -37.803,-25.043 24.955,-40.408 39.955,-86.362 55.981,-95.386 41.776,-23.504 92.688,-65.236 127.008,-95.118 23.266,-20.256 40.772,-27.912 38.906,-35.072 -1.219,-4.683 -28.046,10.036 -55.535,23.684 -41.612,20.665 -102.426,53.826 -111.134,43.53 4.683,-48.042 -11.815,-185.249 -18.416,-167 -6.605,18.249 2.342,111.97 -35.361,183.257 -25.006,47.284 -105.09,84.213 -89.822,59.579 15.264,-24.642 -5.612,-39.338 -18.96,-52.904 -13.35,-13.566 10.886,-106.12 25.798,-153.909 14.912,-47.782 -12.094,-13.38 -12.094,-13.38 0,0 -8.663,6.4 -79.998,87.997 -70.58,80.741 -72.237,104.573 -29.919,130.204 46.611,28.232 41.538,56.308 -1.561,61.348 -43.099,5.04 -49.96,41.5 -72.498,46.793 -19.951,4.684 1.494,15.626 16.547,17.892 15.053,2.268 40.828,10.012 59.642,12.852 17.004,2.564 52.283,19.892 114.036,9.515 2.439,-7.463 2.621,-14.25 2.509,-20.085 10.511,8.593 14.726,21.542 13.19,37.583 -4.356,45.537 -1.854,69.272 114.561,50.28 73.625,-12.012 143.268,-55.521 168.565,-72.075 31.303,-20.5 16.51,-19.311 -76.364,-16.01 z"
   id="path1"
   style="fill:#000000;fill-opacity:1;stroke:none" />
</g>
</svg>
