<svg width="24" height="24" viewBox="0 0 24 24" fill="none" xmlns="http://www.w3.org/2000/svg">
<path d="M13 17c-.003 1.861.863 2.857 1.79 3.792a.708.708 0 0 1-.5 1.209H9.703a.708.708 0 0 1-.5-1.21c.926-.934 1.793-1.93 1.796-3.791m7.068-13h1.5c1.104 0 2.025.895 1.925 1.995C21.255 8.603 20.19 12.357 16 13.5M5.933 4h-1.5c-1.104 0-2.025.895-1.925 1.995C2.745 8.603 3.81 12.357 8 13.5" stroke="#2C3E50" stroke-width="2" stroke-linecap="round" stroke-linejoin="round"/>
<path d="M12.088 17c3.926 0 5.533-7.745 5.907-12.98c.08-1.11-.834-2.02-1.963-2.02H7.969c-1.13 0-2.043.908-1.965 2.019c.371 5.25 1.971 12.98 5.828 12.98z" stroke="#2C3E50" stroke-width="2" stroke-linecap="round" stroke-linejoin="round"/>
</svg>
