<svg width="43" height="43" viewBox="0 0 43 43" fill="none" xmlns="http://www.w3.org/2000/svg">
<path fill-rule="evenodd" clip-rule="evenodd" d="M7.16667 5.375H14.3333C15.3228 5.375 16.125 6.17716 16.125 7.16667C16.125 8.15618 15.3228 8.95833 14.3333 8.95833H11.4921L17.3919 14.8581C18.0916 15.5578 18.0916 16.6922 17.3919 17.3919C16.6922 18.0916 15.5578 18.0916 14.8581 17.3919L8.95833 11.4921V14.3333C8.95833 15.3228 8.15618 16.125 7.16667 16.125C6.17716 16.125 5.375 15.3228 5.375 14.3333V7.16667C5.375 6.17716 6.17716 5.375 7.16667 5.375ZM31.5079 8.95833H28.6667C27.6772 8.95833 26.875 8.15618 26.875 7.16667C26.875 6.17716 27.6772 5.375 28.6667 5.375H35.8333C36.8228 5.375 37.625 6.17716 37.625 7.16667V14.3333C37.625 15.3228 36.8228 16.125 35.8333 16.125C34.8438 16.125 34.0417 15.3228 34.0417 14.3333V11.4921L28.1419 17.3919C27.4422 18.0916 26.3078 18.0916 25.6081 17.3919C24.9084 16.6922 24.9084 15.5578 25.6081 14.8581L31.5079 8.95833ZM17.3919 25.6081C18.0916 26.3078 18.0916 27.4422 17.3919 28.1419L11.4921 34.0417H14.3333C15.3228 34.0417 16.125 34.8438 16.125 35.8333C16.125 36.8228 15.3228 37.625 14.3333 37.625H7.16667C6.17716 37.625 5.375 36.8228 5.375 35.8333V28.6667C5.375 27.6772 6.17716 26.875 7.16667 26.875C8.15618 26.875 8.95833 27.6772 8.95833 28.6667V31.5079L14.8581 25.6081C15.5578 24.9084 16.6922 24.9084 17.3919 25.6081ZM25.6081 25.6081C26.3078 24.9084 27.4422 24.9084 28.1419 25.6081L34.0417 31.5079V28.6667C34.0417 27.6772 34.8438 26.875 35.8333 26.875C36.8228 26.875 37.625 27.6772 37.625 28.6667V35.8333C37.625 36.8228 36.8228 37.625 35.8333 37.625H28.6667C27.6772 37.625 26.875 36.8228 26.875 35.8333C26.875 34.8438 27.6772 34.0417 28.6667 34.0417H31.5079L25.6081 28.1419C24.9084 27.4422 24.9084 26.3078 25.6081 25.6081Z" fill="#2C3E50"/>
</svg>
